<svg xmlns="http://www.w3.org/2000/svg" viewBox="0 0 180 180">
  <defs>
    <linearGradient id="grad" x1="0%" y1="0%" x2="100%" y2="100%">
      <stop offset="0%" style="stop-color:#4f46e5;stop-opacity:1" />
      <stop offset="100%" style="stop-color:#7c3aed;stop-opacity:1" />
    </linearGradient>
  </defs>
  
  <!-- Background -->
  <rect width="180" height="180" rx="40" fill="url(#grad)"/>
  
  <!-- AI Brain icon -->
  <path d="M60 60 Q50 60 50 70 L50 80 Q50 86 55 90 L60 94 L60 110 Q60 120 70 120 L110 120 Q120 120 120 110 L120 94 L125 90 Q130 86 130 80 L130 70 Q130 60 120 60 L110 60 M70 60 L70 80 M110 60 L110 80 M80 90 L80 110 M100 90 L100 110" 
        stroke="white" 
        stroke-width="6" 
        fill="none" 
        stroke-linecap="round" 
        stroke-linejoin="round"/>
  
  <!-- Neural connections -->
  <circle cx="60" cy="75" r="5" fill="white"/>
  <circle cx="90" cy="68" r="5" fill="white"/>
  <circle cx="120" cy="75" r="5" fill="white"/>
  <circle cx="75" cy="100" r="4" fill="white" opacity="0.8"/>
  <circle cx="105" cy="100" r="4" fill="white" opacity="0.8"/>
  
  <!-- Connection lines -->
  <line x1="60" y1="75" x2="90" y2="68" stroke="white" stroke-width="2" opacity="0.6"/>
  <line x1="90" y1="68" x2="120" y2="75" stroke="white" stroke-width="2" opacity="0.6"/>
  <line x1="75" y1="100" x2="90" y2="68" stroke="white" stroke-width="2" opacity="0.6"/>
  <line x1="105" y1="100" x2="90" y2="68" stroke="white" stroke-width="2" opacity="0.6"/>
</svg>
