<svg xmlns="http://www.w3.org/2000/svg" viewBox="0 0 100 100">
  <defs>
    <linearGradient id="grad" x1="0%" y1="0%" x2="100%" y2="100%">
      <stop offset="0%" style="stop-color:#4f46e5;stop-opacity:1" />
      <stop offset="100%" style="stop-color:#7c3aed;stop-opacity:1" />
    </linearGradient>
  </defs>
  
  <!-- Background circle -->
  <circle cx="50" cy="50" r="48" fill="url(#grad)"/>
  
  <!-- AI Brain icon -->
  <path d="M35 35 Q30 35 30 40 L30 45 Q30 48 32 50 L35 52 L35 60 Q35 65 40 65 L60 65 Q65 65 65 60 L65 52 L68 50 Q70 48 70 45 L70 40 Q70 35 65 35 L60 35 M40 35 L40 45 M60 35 L60 45 M45 50 L45 60 M55 50 L55 60" 
        stroke="white" 
        stroke-width="3" 
        fill="none" 
        stroke-linecap="round" 
        stroke-linejoin="round"/>
  
  <!-- Neural connections -->
  <circle cx="35" cy="42" r="2.5" fill="white"/>
  <circle cx="50" cy="38" r="2.5" fill="white"/>
  <circle cx="65" cy="42" r="2.5" fill="white"/>
  <circle cx="42" cy="55" r="2" fill="white" opacity="0.8"/>
  <circle cx="58" cy="55" r="2" fill="white" opacity="0.8"/>
  
  <!-- Connection lines -->
  <line x1="35" y1="42" x2="50" y2="38" stroke="white" stroke-width="1" opacity="0.6"/>
  <line x1="50" y1="38" x2="65" y2="42" stroke="white" stroke-width="1" opacity="0.6"/>
  <line x1="42" y1="55" x2="50" y2="38" stroke="white" stroke-width="1" opacity="0.6"/>
  <line x1="58" y1="55" x2="50" y2="38" stroke="white" stroke-width="1" opacity="0.6"/>
</svg>
